<?xml version="1.0" encoding="UTF-8"?>
<svg version="1.1" xmlns="http://www.w3.org/2000/svg" width="1079" height="636">
<path d="M0 0 C356.07 0 712.14 0 1079 0 C1079 209.88 1079 419.76 1079 636 C722.93 636 366.86 636 0 636 C0 426.12 0 216.24 0 0 Z " fill="#3EAF71" transform="translate(0,0)"/>
<path d="M0 0 C2.74520596 1.44789344 5.1318604 3.01094639 7.58984375 4.90234375 C8.76160156 5.74925781 8.76160156 5.74925781 9.95703125 6.61328125 C14.52022685 10.20212904 16.7709695 12.96550542 17.58984375 18.90234375 C17.71503608 21.91177487 17.71266753 24.89316112 17.58984375 27.90234375 C16.92984375 28.23234375 16.26984375 28.56234375 15.58984375 28.90234375 C16.07309194 34.05699109 18.77595136 37.71784694 21.58984375 41.90234375 C24.98093159 39.71733659 26.41767281 38.68995446 27.296875 34.66796875 C27.33167969 33.5078125 27.36648437 32.34765625 27.40234375 31.15234375 C27.45003906 29.981875 27.49773437 28.81140625 27.546875 27.60546875 C27.56105469 26.7134375 27.57523437 25.82140625 27.58984375 24.90234375 C25.60984375 24.57234375 23.62984375 24.24234375 21.58984375 23.90234375 C22.43629143 21.2219261 23.08527905 19.34868945 25.21484375 17.46484375 C28.98460187 16.5720063 31.9099043 17.79836191 35.58984375 18.90234375 C37.1183243 23.29672532 37.60903557 26.32063926 37.15234375 30.96484375 C36.96084781 33.51514045 36.96084781 33.51514045 37.58984375 35.90234375 C40.27283951 38.55327183 43.2523074 40.19256615 46.58984375 41.90234375 C48.30838871 43.62088871 48.00328986 45.73986649 48.15234375 48.08984375 C48.06617453 53.22022656 48.06617453 53.22022656 46.296875 55.75390625 C42.15649896 59.05561337 37.4793956 60.78005334 32.58984375 62.71484375 C25.36621164 65.63998801 20.12224773 69.83753579 16.58984375 76.90234375 C8.96484375 76.02734375 8.96484375 76.02734375 5.58984375 74.90234375 C5.58984375 73.58234375 5.58984375 72.26234375 5.58984375 70.90234375 C6.78609375 70.94359375 7.98234375 70.98484375 9.21484375 71.02734375 C12.38166309 70.66862439 13.31996707 70.23744561 15.3515625 67.71484375 C16.36901984 65.95159274 17.34253678 64.16209327 18.265625 62.34765625 C20.11314718 58.93600763 21.42099806 57.34822994 25.078125 55.953125 C34.50143511 53.48977008 34.50143511 53.48977008 39.58984375 53.90234375 C39.58984375 50.27234375 39.58984375 46.64234375 39.58984375 42.90234375 C33.93937269 44.81053562 29.52298985 47.00986711 24.77734375 50.58984375 C24.17913818 51.03046143 23.58093262 51.4710791 22.96459961 51.92504883 C21.74907043 52.8204892 20.53589407 53.71913301 19.32519531 54.62109375 C16.79800945 56.48697324 14.21944433 58.27943673 11.65234375 60.08984375 C3.87133605 65.78522052 -2.57358877 71.22905741 -4.25390625 81.1796875 C-4.48256058 82.73164594 -4.70113928 84.28511878 -4.91015625 85.83984375 C-5.70157977 91.69735487 -6.84569628 96.55259532 -9.41015625 101.90234375 C-0.44099513 98.67628184 7.57086271 95.59623514 14.58984375 88.90234375 C15.15058594 88.36996094 15.71132812 87.83757812 16.2890625 87.2890625 C20.78021477 82.54903026 23.14259879 76.89051394 25.58984375 70.90234375 C27.56984375 71.56234375 29.54984375 72.22234375 31.58984375 72.90234375 C27.26430854 88.29695042 20.23422851 97.69889304 7.00390625 106.65234375 C4.58984375 107.90234375 4.58984375 107.90234375 0.58984375 107.90234375 C2.31210871 111.15084352 2.31210871 111.15084352 5.58984375 111.90234375 C5.44958092 114.21518831 5.30248817 116.52761966 5.15234375 118.83984375 C5.03052734 120.77150391 5.03052734 120.77150391 4.90625 122.7421875 C4.58984375 125.90234375 4.58984375 125.90234375 3.58984375 126.90234375 C-4.6041861 127.17100047 -4.6041861 127.17100047 -8.41015625 125.90234375 C-8.74015625 126.56234375 -9.07015625 127.22234375 -9.41015625 127.90234375 C-10.07015625 127.90234375 -10.73015625 127.90234375 -11.41015625 127.90234375 C-11.84328125 129.29453125 -11.84328125 129.29453125 -12.28515625 130.71484375 C-13.41015625 133.90234375 -13.41015625 133.90234375 -15.41015625 136.90234375 C-18.30859375 137.265625 -18.30859375 137.265625 -21.78515625 137.21484375 C-22.92726562 137.21097656 -24.069375 137.20710937 -25.24609375 137.203125 C-28.23290433 136.91919362 -29.94289362 136.55692983 -32.41015625 134.90234375 C-33.73244814 132.25775996 -33.50692819 130.22473074 -33.47265625 127.27734375 C-33.46363281 126.27445312 -33.45460937 125.2715625 -33.4453125 124.23828125 C-33.43371094 123.46742188 -33.42210937 122.6965625 -33.41015625 121.90234375 C-35.20453125 122.39734375 -35.20453125 122.39734375 -37.03515625 122.90234375 C-40.57010203 123.78764989 -43.74807419 124.17030097 -47.41015625 123.90234375 C-48.41015625 122.90234375 -48.41015625 122.90234375 -48.59765625 119.77734375 C-48.16023473 110.73729902 -48.16023473 110.73729902 -44.71875 107.12890625 C-42.99408199 105.64464651 -41.24757801 104.24356338 -39.41015625 102.90234375 C-39.99023438 101.90267578 -39.99023438 101.90267578 -40.58203125 100.8828125 C-46.1503066 91.02806775 -50.30881048 82.41011038 -49.41015625 70.90234375 C-46.3220593 69.13771692 -45.17703489 68.90234375 -41.41015625 68.90234375 C-41.34699219 69.67835938 -41.28382813 70.454375 -41.21875 71.25390625 C-40.07740227 81.32179465 -36.91073214 90.33322067 -30.46875 98.3046875 C-28.54074274 100.07521747 -28.54074274 100.07521747 -26.15625 100.21484375 C-21.42281291 99.65817982 -21.42281291 99.65817982 -17.47265625 97.21484375 C-17.12203125 96.45171875 -16.77140625 95.68859375 -16.41015625 94.90234375 C-16.01828125 94.07734375 -15.62640625 93.25234375 -15.22265625 92.40234375 C-13.31112334 84.16804813 -13.51478968 75.50883658 -17.41015625 67.90234375 C-19.85556247 64.05442514 -22.60659577 60.49440561 -25.41015625 56.90234375 C-26.30809292 55.69166134 -27.20383562 54.47934937 -28.09765625 53.265625 C-32.9317134 46.78898443 -37.00715398 41.53890627 -44.41015625 37.90234375 C-45.07660156 37.54914063 -45.74304688 37.1959375 -46.4296875 36.83203125 C-49.02947533 35.61161803 -51.57912363 35.28839365 -54.41015625 34.90234375 C-54.08015625 36.88234375 -53.75015625 38.86234375 -53.41015625 40.90234375 C-52.52328125 41.12921875 -51.63640625 41.35609375 -50.72265625 41.58984375 C-45.63852674 43.60431016 -43.09663067 46.46317032 -40.75 51.3828125 C-39.81219272 53.86186295 -38.87469461 56.34103037 -37.9375 58.8203125 C-36.69793913 61.90506689 -36.69793913 61.90506689 -34.5546875 63.2890625 C-32.06981197 63.99967354 -29.7368738 64.32391868 -27.16015625 64.52734375 C-26.268125 64.60210937 -25.37609375 64.676875 -24.45703125 64.75390625 C-23.44382812 64.82738281 -23.44382812 64.82738281 -22.41015625 64.90234375 C-22.41015625 66.88234375 -22.41015625 68.86234375 -22.41015625 70.90234375 C-36.30431399 72.10327935 -36.30431399 72.10327935 -40.85546875 69.5078125 C-44.20774112 65.81730637 -45.89388602 61.80543025 -47.72265625 57.21484375 C-49.58018704 52.71438326 -51.20729446 50.96583556 -55.59765625 48.83984375 C-56.45746094 48.49824219 -57.31726563 48.15664062 -58.203125 47.8046875 C-60.41015625 46.90234375 -60.41015625 46.90234375 -62.41015625 44.90234375 C-62.7109375 42.0390625 -62.7109375 42.0390625 -62.72265625 38.58984375 C-62.73941406 37.45933594 -62.75617188 36.32882813 -62.7734375 35.1640625 C-62.37552536 31.59141053 -61.6057484 29.72524794 -59.41015625 26.90234375 C-55.06764107 25.45483869 -50.74166668 25.8608578 -46.21484375 25.94140625 C-42.99796942 25.9770174 -40.48707076 25.92798192 -37.41015625 24.90234375 C-36.01224032 21.22361762 -35.40349574 18.28199286 -35.47265625 14.33984375 C-35.39931998 10.30634894 -34.5859039 8.2785039 -32.41015625 4.90234375 C-24.09062495 -2.97931749 -10.58714824 -3.40777624 0 0 Z " fill="#E6F4ED" transform="translate(190.41015625,187.09765625)"/>
<path d="M0 0 C7.92 0 15.84 0 24 0 C32.03178298 18.19700831 39.61539255 36.55705984 47.12887573 54.97233582 C50.40057351 62.98925569 53.6982266 70.9954287 57 79 C59.79605183 76.20394817 60.92164065 72.8100654 62.421875 69.21484375 C62.75873322 68.41842972 63.09559143 67.62201569 63.44265747 66.8014679 C64.16997757 65.08010905 64.89503976 63.35779483 65.61810303 61.63464355 C66.75399833 58.92797257 67.89596081 56.22393583 69.03955078 53.52050781 C72.42026686 45.52315222 75.78382016 37.51862357 79.14013672 29.51100159 C80.41540196 26.47085755 81.69453271 23.4323486 82.97424316 20.39407349 C83.86070789 18.28401954 84.74054685 16.1712848 85.62011719 14.05834961 C86.16049812 12.7731447 86.70117108 11.48806252 87.2421875 10.203125 C87.7047998 9.09614258 88.16741211 7.98916016 88.64404297 6.84863281 C90 4 90 4 93 0 C100.26 0 107.52 0 115 0 C115 35.97 115 71.94 115 109 C109.72 109 104.44 109 99 109 C98.34 82.93 97.68 56.86 97 30 C94.504375 36.0225 92.00875 42.045 89.4375 48.25 C83.7951052 61.86007016 78.14856746 75.46841027 72.48562622 89.06994629 C71.82919404 90.64674936 71.17300458 92.22365349 70.51705933 93.80065918 C69.60584581 95.99110591 68.69369673 98.18116049 67.78125 100.37109375 C67.5122438 101.01813766 67.24323761 101.66518158 66.96607971 102.33183289 C66.02676008 104.58388098 65.0916135 106.816773 64 109 C59.71 109 55.42 109 51 109 C50.59386475 108.00709961 50.18772949 107.01419922 49.76928711 105.99121094 C41.47622459 85.72227765 33.14187891 65.47167785 24.69897461 45.26464844 C24.39699661 44.541716 24.09501862 43.81878357 23.78388977 43.07394409 C23.22464085 41.7354943 22.66501056 40.39720374 22.10490417 39.05911255 C20.70760809 35.7164149 19.34571489 32.36428722 18 29 C17.34 55.4 16.68 81.8 16 109 C10.72 109 5.44 109 0 109 C0 73.03 0 37.06 0 0 Z " fill="#F3FAF6" transform="translate(722,256)"/>
<path d="M0 0 C0.94875 0.721875 1.8975 1.44375 2.875 2.1875 C3.37128906 1.71699219 3.86757813 1.24648438 4.37890625 0.76171875 C5.05824219 0.13910156 5.73757813 -0.48351562 6.4375 -1.125 C7.42943359 -2.04732422 7.42943359 -2.04732422 8.44140625 -2.98828125 C13.8580921 -7.04862201 19.13873282 -8.35149305 25.8125 -8.25 C26.51689209 -8.24170166 27.22128418 -8.23340332 27.94702148 -8.22485352 C33.50274483 -8.04401739 37.50727937 -7.25962377 41.875 -3.8125 C42.49761719 -3.32652344 43.12023437 -2.84054687 43.76171875 -2.33984375 C49.32840034 2.59664747 52.35112816 8.72717168 53.21984863 16.12359619 C53.33462373 19.34287729 53.32565247 22.53708996 53.265625 25.7578125 C53.25996521 26.92005341 53.25430542 28.08229431 53.24847412 29.27975464 C53.2262512 32.95777211 53.17607942 36.63478162 53.125 40.3125 C53.10491688 42.82029834 53.08666931 45.32811209 53.0703125 47.8359375 C53.0264323 53.95350783 52.95750147 60.07033357 52.875 66.1875 C47.925 66.1875 42.975 66.1875 37.875 66.1875 C37.81554199 63.97051392 37.81554199 63.97051392 37.75488281 61.70874023 C37.60236658 56.20839008 37.42499751 50.70907039 37.24023438 45.2097168 C37.163821 42.8326456 37.09408626 40.4553497 37.03125 38.07788086 C36.93958286 34.65397008 36.82366414 31.23159501 36.703125 27.80859375 C36.68002258 26.75103378 36.65692017 25.69347382 36.63311768 24.60386658 C36.34302974 17.30039184 35.19347677 12.50597677 29.875 7.1875 C23.07854734 6.39337731 16.74027779 6.52170138 10.875 10.1875 C7.31590558 14.68319821 5.77404494 18.25376845 5.66967773 23.93432617 C5.64973251 24.89509567 5.62978729 25.85586517 5.60923767 26.8457489 C5.59252518 27.88020645 5.57581268 28.914664 5.55859375 29.98046875 C5.53781265 31.04163406 5.51703156 32.10279938 5.49562073 33.19612122 C5.43018762 36.58901437 5.37126907 39.9819855 5.3125 43.375 C5.26930886 45.67383622 5.22569438 47.97266453 5.18164062 50.27148438 C5.0745126 55.9100736 4.97273449 61.54874056 4.875 67.1875 C2.56256208 67.21435412 0.2500373 67.23382841 -2.0625 67.25 C-3.35027344 67.26160156 -4.63804687 67.27320313 -5.96484375 67.28515625 C-9.125 67.1875 -9.125 67.1875 -10.125 66.1875 C-10.24858206 63.05796607 -10.31124964 59.94718438 -10.3359375 56.81640625 C-10.36403662 54.86001811 -10.39270123 52.90363803 -10.421875 50.94726562 C-10.46292302 47.86011238 -10.49980119 44.77310461 -10.52636719 41.68579102 C-10.55422004 38.70817683 -10.60012443 35.73124987 -10.6484375 32.75390625 C-10.65169037 31.84620987 -10.65494324 30.93851349 -10.65829468 30.00331116 C-10.79912691 22.54849192 -11.9306915 15.47896275 -16.125 9.1875 C-19.85725147 7.2433481 -23.07413851 6.89069873 -27.25 6.875 C-28.80074219 6.84986328 -28.80074219 6.84986328 -30.3828125 6.82421875 C-33.48604592 7.23533087 -34.15960356 7.87419177 -36.125 10.1875 C-36.785 10.1875 -37.445 10.1875 -38.125 10.1875 C-42.24911499 18.30503314 -44.72138245 25.1823397 -44.734375 34.3515625 C-44.75091125 35.26964691 -44.76744751 36.18773132 -44.78448486 37.13363647 C-44.832539 40.02666189 -44.8542402 42.91916345 -44.875 45.8125 C-44.90319539 47.79039034 -44.93312773 49.76825673 -44.96484375 51.74609375 C-45.03828593 56.5598526 -45.08811954 61.37332787 -45.125 66.1875 C-49.745 66.1875 -54.365 66.1875 -59.125 66.1875 C-59.125 42.0975 -59.125 18.0075 -59.125 -6.8125 C-54.505 -6.8125 -49.885 -6.8125 -45.125 -6.8125 C-44.795 -4.5025 -44.465 -2.1925 -44.125 0.1875 C-43.27228516 -0.42738281 -43.27228516 -0.42738281 -42.40234375 -1.0546875 C-27.96155992 -11.13189558 -14.02042803 -9.7947102 0 0 Z " fill="#F4FAF7" transform="translate(560.125,298.8125)"/>
<path d="M0 0 C1.051875 0.5775 2.10375 1.155 3.1875 1.75 C9.83930522 7.07144417 15.29178641 13.15126979 16.34765625 21.87109375 C16.94295796 34.58612777 12.34041648 44.6532756 4 54 C3.40058594 54.70640625 2.80117188 55.4128125 2.18359375 56.140625 C-2.97161604 62.07264722 -8.51939739 67.62069203 -14.0625 73.1875 C-14.81829346 73.94796631 -15.57408691 74.70843262 -16.3527832 75.49194336 C-20.46404919 79.59158423 -24.64751478 83.53425637 -29.07592773 87.2902832 C-31.47838872 89.42509278 -33.72742099 91.72742099 -36 94 C-10.755 94.99 -10.755 94.99 15 96 C15 100.29 15 104.58 15 109 C-8.76 109 -32.52 109 -57 109 C-57 91.18185241 -57 91.18185241 -49.609375 83.28125 C-48.33125086 82.01238283 -47.04448632 80.75217027 -45.75 79.5 C-45.07614258 78.83709961 -44.40228516 78.17419922 -43.70800781 77.49121094 C-39.90424373 73.7720158 -36.03419514 70.17432194 -31.96484375 66.74609375 C-28.34291408 63.52740078 -24.99873316 60.01462279 -21.61328125 56.55078125 C-19 54 -19 54 -16.390625 51.953125 C-8.81935838 45.76744966 -4.06166387 36.05951747 -2.62109375 26.48046875 C-2.42550329 22.67591887 -2.72317569 20.50935674 -4.5625 17.125 C-10.70656799 11.76863303 -16.68298873 11.28334371 -24.6796875 11.453125 C-28.98344364 12.16197895 -30.84879612 13.57286015 -33.5703125 16.8828125 C-35.1408947 19.12575871 -35.1408947 19.12575871 -36.6953125 22.21875 C-39 25 -39 25 -42.671875 25.5859375 C-44.0324902 25.54630793 -45.39249197 25.47508093 -46.75 25.375 C-47.79607422 25.33439453 -47.79607422 25.33439453 -48.86328125 25.29296875 C-50.57685705 25.22254783 -52.28883302 25.11492913 -54 25 C-54.2501737 16.83433043 -52.4434754 10.2274059 -46.8125 4.125 C-35.28907179 -6.38238401 -13.25133297 -7.72547347 0 0 Z " fill="#F5FBF7" transform="translate(687,257)"/>
<path d="M0 0 C4.73065739 4.18075614 8.19224795 8.92985712 9.10543823 15.28678894 C9.22678656 18.06420417 9.22638564 20.81416136 9.17578125 23.59375 C9.17084908 25.11313171 9.17084908 25.11313171 9.16581726 26.66320801 C9.15015669 29.88008368 9.10616321 33.09589624 9.0625 36.3125 C9.05099779 38.4726477 9.04121584 40.63280529 9.03320312 42.79296875 C9.01977558 44.87240639 9.00485165 46.95183503 8.98828125 49.03125 C8.98089432 49.99293091 8.97350739 50.95461182 8.96589661 51.94543457 C8.89054367 57.31456056 8.52508388 62.4980849 7.75 67.8125 C3.79 67.8125 -0.17 67.8125 -4.25 67.8125 C-4.91 65.5025 -5.57 63.1925 -6.25 60.8125 C-6.68570313 61.21082031 -7.12140625 61.60914063 -7.5703125 62.01953125 C-15.8179899 69.35675075 -22.9723335 71.20935216 -33.89453125 71.0859375 C-41.59451163 70.45846529 -47.74470312 67.47193699 -52.91015625 61.7109375 C-55.13767791 58.55474062 -55.87704589 55.56690469 -56.25 51.8125 C-56.38921875 50.80703125 -56.5284375 49.8015625 -56.671875 48.765625 C-57.18558985 42.3290801 -56.67141781 38.38765627 -52.4375 33.375 C-42.56002942 23.95766003 -33.44910539 21.8219033 -20.25 21.8125 C-18.87108938 21.79860425 -17.49218293 21.78428763 -16.11328125 21.76953125 C-12.82422966 21.75290308 -9.53867719 21.76625298 -6.25 21.8125 C-6.7952087 20.24388278 -7.36213429 18.68280833 -7.9375 17.125 C-8.25074219 16.25488281 -8.56398438 15.38476562 -8.88671875 14.48828125 C-10.59822314 11.12902479 -12.27831757 9.14680208 -15.25 6.8125 C-24.19477621 5.16666118 -32.23743333 6.8222418 -40.25 10.8125 C-43.25 11.8125 -43.25 11.8125 -46.875 10.3125 C-48.73046875 9.203125 -48.73046875 9.203125 -50.25 7.8125 C-51.1875 4.0625 -51.1875 4.0625 -51.25 0.8125 C-35.71426037 -8.23578791 -14.63267343 -12.37164809 0 0 Z " fill="#F1F8F4" transform="translate(913.25,298.1875)"/>
<path d="M0 0 C0.87785156 -0.0100708 1.75570312 -0.0201416 2.66015625 -0.03051758 C10.55730145 0.07319865 18.99181256 1.16090033 24.9375 6.8125 C25.86369141 7.65941406 25.86369141 7.65941406 26.80859375 8.5234375 C30.52355486 12.72743506 31.87612378 15.88456811 31.84057617 21.51293945 C31.84034958 22.71380692 31.84012299 23.91467438 31.83988953 25.15193176 C31.82440567 26.43855209 31.80892181 27.72517242 31.79296875 29.05078125 C31.78736869 30.38884505 31.78310053 31.72691502 31.78010559 33.06498718 C31.76868892 36.57501412 31.73924987 40.08466456 31.70599365 43.59454346 C31.67522371 47.18081572 31.66158553 50.76714922 31.64648438 54.35351562 C31.61437647 61.38168002 31.56163497 68.40953314 31.5 75.4375 C27.54 75.4375 23.58 75.4375 19.5 75.4375 C19.17 73.4575 18.84 71.4775 18.5 69.4375 C17.90832031 69.84742188 17.31664062 70.25734375 16.70703125 70.6796875 C15.91683594 71.21851563 15.12664062 71.75734375 14.3125 72.3125 C13.53519531 72.84617187 12.75789063 73.37984375 11.95703125 73.9296875 C3.48658532 79.1277672 -7.13323815 79.73322326 -16.75 77.75 C-22.33888839 75.79388907 -27.5339812 72.74511259 -30.5 67.4375 C-33.21560787 60.2911635 -33.76985372 52.94426607 -31 45.75 C-27.37097679 38.54288724 -21.30442766 34.35315578 -14.03979492 31.23803711 C-9.5508513 29.82313313 -5.16403995 29.98005401 -0.5 30.125 C0.43328125 30.13466797 1.3665625 30.14433594 2.328125 30.15429688 C8.10955569 30.24715505 13.76452629 30.71468928 19.5 31.4375 C18.3774654 29.16541794 17.25208479 26.89482355 16.125 24.625 C15.80789063 23.98240234 15.49078125 23.33980469 15.1640625 22.67773438 C13.73541389 19.80555539 12.28214527 17.1107179 10.5 14.4375 C7.71091424 14.0741012 5.22861165 13.91615307 2.4375 13.9375 C1.66615723 13.93814453 0.89481445 13.93878906 0.10009766 13.93945312 C-5.41178293 14.08361537 -9.04493131 15.15207235 -13.62890625 18.32421875 C-16.64887739 20.12107005 -19.07631186 19.80172214 -22.5 19.4375 C-22.5 18.1175 -22.5 16.7975 -22.5 15.4375 C-23.49 15.4375 -24.48 15.4375 -25.5 15.4375 C-25.93890778 11.66289305 -25.8659873 9.94988222 -23.625 6.8125 C-16.08022117 1.07846809 -9.31402989 0.06939801 0 0 Z " fill="#F2FAF5" transform="translate(391.5,290.5625)"/>
<path d="M0 0 C4.62 0 9.24 0 14 0 C15.31856796 24.3228697 15.09903228 48.65024774 15 73 C17.98125791 70.64704629 20.684645 68.41309392 23.125 65.5 C26.22773532 61.89594937 29.33507022 58.29957547 32.5 54.75 C32.93844238 54.24275391 33.37688477 53.73550781 33.82861328 53.21289062 C37.7812561 48.81105082 41.9240558 45.44943421 47.9140625 44.57421875 C48.80867188 44.61160156 49.70328125 44.64898437 50.625 44.6875 C51.97464844 44.72423828 51.97464844 44.72423828 53.3515625 44.76171875 C55.96094442 44.99648615 58.44404155 45.43252186 61 46 C57.74398952 55.24180753 50.39665767 61.91198177 43 68 C41.49617801 69.30811913 39.99607738 70.62053048 38.5 71.9375 C37.33333333 72.95833333 36.16666667 73.97916667 35 75 C36.96061142 89.15159271 54.28271271 102.37285452 64 112 C65 113 65 113 65.0625 115.5625 C65.041875 116.366875 65.02125 117.17125 65 118 C47.67959067 119.28665898 47.67959067 119.28665898 42.2421875 116.67578125 C40.15327879 114.59124264 38.61701307 112.47002455 37 110 C35.80817854 108.44423307 34.61568639 106.88891867 33.41015625 105.34375 C32.55474892 104.24134056 31.70830948 103.13191264 30.87109375 102.015625 C27.16651961 97.08383899 23.08535408 92.60968745 18.8359375 88.14453125 C17 86 17 86 17 84 C16.34 84 15.68 84 15 84 C15.01160156 84.86238281 15.02320313 85.72476563 15.03515625 86.61328125 C15.11272145 97.1067444 14.63130742 107.52706086 14 118 C9.38 118 4.76 118 0 118 C0 79.06 0 40.12 0 0 Z " fill="#F8FBFA" transform="translate(999,248)"/>
<path d="M0 0 C22.77 0 45.54 0 69 0 C69 4.62 69 9.24 69 14 C50.85 14 32.7 14 14 14 C14 25.88 14 37.76 14 50 C30.5 50 47 50 64 50 C64 53.96 64 57.92 64 62 C47.5 62 31 62 14 62 C14 77.84 14 93.68 14 110 C9.38 110 4.76 110 0 110 C0 73.7 0 37.4 0 0 Z " fill="#F7FBF9" transform="translate(278,256)"/>
<path d="M0 0 C5.95710579 2.64760257 10.6194938 5.90106021 15.60546875 10.09765625 C17.96365351 12.05681699 17.96365351 12.05681699 20.63671875 13.578125 C26.50402058 17.10820412 29.23507534 22.56309504 31 29 C31.45563485 32.33249986 31.59717276 35.63982671 31.6875 39 C31.72166016 39.87011719 31.75582031 40.74023438 31.79101562 41.63671875 C31.87257983 43.75738815 31.93798528 45.87866891 32 48 C33.65 48.66 35.3 49.32 37 50 C37.07451364 54.3049777 37.12877223 58.60960734 37.16479492 62.91503906 C37.17982196 64.37767075 37.20024955 65.84025782 37.22631836 67.30273438 C37.26297267 69.4128728 37.27978676 71.52241226 37.29296875 73.6328125 C37.3086792 74.90012207 37.32438965 76.16743164 37.34057617 77.47314453 C36.7139675 83.96202546 33.36304257 88.32531153 29 93 C25.15537979 95.93405227 21.7764899 96.53171668 17 97 C16.625 94.3125 16.625 94.3125 17 91 C19.8125 88.5 19.8125 88.5 21.39453125 87.46875 C26.35895295 82.92708927 27.03486297 75.91292653 28.1875 69.625 C28.36474609 68.69816406 28.54199219 67.77132812 28.72460938 66.81640625 C29.15769206 64.54564838 29.58257427 62.27367875 30 60 C28.68 60 27.36 60 26 60 C25.49358702 55.64655438 24.99601358 51.29214175 24.5 46.9375 C24.35691406 45.70837891 24.21382812 44.47925781 24.06640625 43.21289062 C23.93105469 42.01728516 23.79570313 40.82167969 23.65625 39.58984375 C23.53056641 38.49534912 23.40488281 37.40085449 23.27539062 36.27319336 C22.98601695 32.83380258 22.95417952 29.4499 23 26 C22.443125 25.98324219 21.88625 25.96648437 21.3125 25.94921875 C16.99249857 25.46029967 14.68611371 24.73528519 11.65625 21.48828125 C9.21537306 18.10554419 6.86809206 14.73618411 5 11 C0.1617803 11.35887526 0.1617803 11.35887526 -4.125 13.4375 C-6.97864232 17.33747784 -8.96471473 21.62914147 -11 26 C-12.98 26 -14.96 26 -17 26 C-17 33.26 -17 40.52 -17 48 C-18.98 48 -20.96 48 -23 48 C-22.75765625 48.71800781 -22.5153125 49.43601562 -22.265625 50.17578125 C-19.79363803 57.81041792 -17.96778063 65.40398828 -16.48339844 73.28637695 C-15.28515578 79.41037195 -13.91978114 85.53823294 -9.3125 90.0625 C-7 93 -7 93 -6.6875 96.375 C-6.790625 97.24125 -6.89375 98.1075 -7 99 C-12.9461426 98.13734719 -16.04931636 95.39929607 -20 91 C-25.46217358 83.13749409 -29.15933782 76.86809168 -29.1328125 67.12109375 C-29.13376923 66.35322037 -29.13472595 65.58534698 -29.13571167 64.79420471 C-29.13639159 63.17277952 -29.13455043 61.55135159 -29.13037109 59.92993164 C-29.12501284 57.44346027 -29.13032617 54.95716893 -29.13671875 52.47070312 C-29.13605808 50.89583293 -29.13477714 49.32096285 -29.1328125 47.74609375 C-29.13483673 47.00024521 -29.13686096 46.25439667 -29.13894653 45.48594666 C-29.11496623 40.22993247 -29.11496623 40.22993247 -28 38 C-26.68 38 -25.36 38 -24 38 C-24.10441406 36.515 -24.10441406 36.515 -24.2109375 35 C-24.81533556 23.01682128 -24.81533556 23.01682128 -21.875 18.8125 C-15.47430667 11.82712795 -7.64826551 5.57448208 0 0 Z " fill="#EAF6F0" transform="translate(80,286)"/>
<path d="M0 0 C5.28 0 10.56 0 16 0 C16.99 1.32 17.98 2.64 19 4 C20.44052734 3.01773437 20.44052734 3.01773437 21.91015625 2.015625 C26.40397408 -0.5522709 30.37353318 -0.46218878 35.4375 -0.25 C36.26443359 -0.23195313 37.09136719 -0.21390625 37.94335938 -0.1953125 C39.96274933 -0.1486214 41.98153445 -0.07689393 44 0 C44 4.62 44 9.24 44 14 C42.84242188 14.17015625 41.68484375 14.3403125 40.4921875 14.515625 C38.95300202 14.75964221 37.41394606 15.00447736 35.875 15.25 C34.73417969 15.41435547 34.73417969 15.41435547 33.5703125 15.58203125 C27.6263341 16.55561392 23.27276995 18.41374454 19.1875 23.0625 C17.19089375 26.32012072 16.80016942 29.28941035 16.5 33.0234375 C16.3769751 34.54142944 16.3769751 34.54142944 16.25146484 36.09008789 C16.16848145 37.17410889 16.08549805 38.25812988 16 39.375 C15.91314941 40.48157959 15.82629883 41.58815918 15.73681641 42.72827148 C14.94338292 53.1433885 14.41700889 63.56380388 14 74 C9.38 74 4.76 74 0 74 C0 49.58 0 25.16 0 0 Z " fill="#EEF7F2" transform="translate(443,292)"/>
<path d="M0 0 C0 4.62 0 9.24 0 14 C-1.16917969 14.17015625 -2.33835937 14.3403125 -3.54296875 14.515625 C-5.09127467 14.75960048 -6.63944496 15.00443771 -8.1875 15.25 C-8.95642578 15.35957031 -9.72535156 15.46914063 -10.51757812 15.58203125 C-15.3711545 16.37360165 -18.50983754 17.30526319 -22 21 C-26.082186 26.84732648 -26.65661188 31.48794133 -26.828125 38.52734375 C-26.8668573 39.51626114 -26.9055896 40.50517853 -26.94549561 41.52406311 C-27.06440268 44.66153202 -27.15757526 47.79915056 -27.25 50.9375 C-27.32642333 53.07362927 -27.40453049 55.209699 -27.484375 57.34570312 C-27.67574644 62.56331462 -27.84405451 67.78121443 -28 73 C-32.62 73 -37.24 73 -42 73 C-42 49.57 -42 26.14 -42 2 C-37.38 2 -32.76 2 -28 2 C-27.67 3.65 -27.34 5.3 -27 7 C-26.3915625 6.4946875 -25.783125 5.989375 -25.15625 5.46875 C-16.73644143 -0.771814 -10.01800425 -0.79188741 0 0 Z " fill="#F7FCF9" transform="translate(983,292)"/>
<path d="M0 0 C1.32 0 2.64 0 4 0 C4.59323936 11.27154777 -0.30270672 17.61297881 -7.58105469 25.77246094 C-33.52296672 54.42838492 -69.53079334 85.86951179 -110.02783203 88.11230469 C-119.16016637 88.52862866 -127.29818034 88.1216565 -136 85 C-136.99 84.67 -137.98 84.34 -139 84 C-139 81.69 -139 79.38 -139 77 C-137.865625 77.165 -136.73125 77.33 -135.5625 77.5 C-99.69614931 81.31676345 -67.9032025 67.65063062 -40.23046875 45.671875 C-35.08426995 41.47972036 -30.23607553 36.96613969 -25.44433594 32.37695312 C-24.16655905 31.15878855 -22.86977523 29.96062932 -21.5703125 28.765625 C-12.8420927 20.5033244 -5.78917353 10.49878089 0 0 Z " fill="#E9F5EF" transform="translate(158,330)"/>
<path d="M0 0 C2.03993414 0.47224691 4.0783326 0.95206654 6.10864258 1.46411133 C12.90296975 2.72338247 20.04406 2.36191636 26.94799805 2.38085938 C29.0141126 2.39037516 31.07874878 2.4240859 33.14453125 2.4609375 C34.97528198 2.47326416 34.97528198 2.47326416 36.84301758 2.48583984 C40.5898395 3.09606388 41.56715483 4.19403978 44 7 C44.99 7.33 45.98 7.66 47 8 C46.85973717 10.31284456 46.71264442 12.62527591 46.5625 14.9375 C46.48128906 16.22527344 46.40007812 17.51304687 46.31640625 18.83984375 C46 22 46 22 45 23 C36.80597015 23.26865672 36.80597015 23.26865672 33 22 C32.67 22.66 32.34 23.32 32 24 C31.34 24 30.68 24 30 24 C29.71125 24.928125 29.4225 25.85625 29.125 26.8125 C28 30 28 30 26 33 C23.1015625 33.36328125 23.1015625 33.36328125 19.625 33.3125 C18.48289063 33.30863281 17.34078125 33.30476563 16.1640625 33.30078125 C13.17725192 33.01684987 11.46726263 32.65458608 9 31 C7.67770811 28.35541621 7.90322806 26.32238699 7.9375 23.375 C7.94652344 22.37210937 7.95554688 21.36921875 7.96484375 20.3359375 C7.97644531 19.56507813 7.98804688 18.79421875 8 18 C6.80375 18.33 5.6075 18.66 4.375 19 C0.84005422 19.88530614 -2.33791794 20.26795722 -6 20 C-7 19 -7 19 -7.1875 15.875 C-6.92176565 10.38315684 -6.02662622 6.52438438 -2.9375 1.9375 C-1.968125 1.298125 -0.99875 0.65875 0 0 Z " fill="#55B882" transform="translate(149,291)"/>
<path d="M0 0 C6.92133993 3.79705999 13.25866553 9.23666727 16.38671875 16.62890625 C17.56350022 20.8905363 17.32250503 24.71343252 16.43359375 29.046875 C13.84367956 31.74470228 10.55674726 31.37562316 6.93359375 31.609375 C6.27359375 33.919375 5.61359375 36.229375 4.93359375 38.609375 C-29.06915718 45.58429827 -29.06915718 45.58429827 -41.98046875 39.08203125 C-46.17364868 36.12167763 -50.03526946 32.7680361 -53.06640625 28.609375 C-53.06640625 27.289375 -53.06640625 25.969375 -53.06640625 24.609375 C-48.87819832 24.96581823 -45.6256039 25.68615917 -41.81640625 27.484375 C-32.72595619 31.73649012 -23.84432457 33.07314848 -13.87890625 33.296875 C-12.83154297 33.33103516 -11.78417969 33.36519531 -10.70507812 33.40039062 C-8.15896156 33.48177335 -5.61314181 33.55126847 -3.06640625 33.609375 C-3.06640625 32.289375 -3.06640625 30.969375 -3.06640625 29.609375 C-1.44390684 28.77118342 0.18167872 27.9389634 1.80859375 27.109375 C2.71351563 26.6453125 3.6184375 26.18125 4.55078125 25.703125 C6.93359375 24.609375 6.93359375 24.609375 8.93359375 24.609375 C6.98964508 19.18678135 5.9218596 17.57537091 0.93359375 14.609375 C0.7890625 12.0234375 0.7890625 12.0234375 0.93359375 9.609375 C0.09054688 9.47660156 -0.7525 9.34382813 -1.62109375 9.20703125 C-2.71679688 9.03042969 -3.8125 8.85382813 -4.94140625 8.671875 C-6.03195313 8.49785156 -7.1225 8.32382812 -8.24609375 8.14453125 C-11.06640625 7.609375 -11.06640625 7.609375 -13.06640625 6.609375 C-13.06640625 5.289375 -13.06640625 3.969375 -13.06640625 2.609375 C-13.80761719 2.6815625 -14.54882812 2.75375 -15.3125 2.828125 C-24.5846041 3.64525045 -33.76527271 3.70962674 -43.06640625 3.609375 C-43.1796875 1.21875 -43.1796875 1.21875 -43.06640625 -1.390625 C-33.28242223 -10.83723026 -10.78335586 -4.76767359 0 0 Z " fill="#ECF6F1" transform="translate(207.06640625,341.390625)"/>
<path d="M0 0 C2.74520596 1.44789344 5.1318604 3.01094639 7.58984375 4.90234375 C8.76160156 5.74925781 8.76160156 5.74925781 9.95703125 6.61328125 C14.52022685 10.20212904 16.7709695 12.96550542 17.58984375 18.90234375 C17.71503608 21.91177487 17.71266753 24.89316112 17.58984375 27.90234375 C13.39857088 30.47712108 10.61479542 29.72466729 5.99609375 28.671875 C2.10750132 27.42828294 -0.24988144 25.20765291 -2.91015625 22.21484375 C-6.19164979 19.3435369 -11.16989829 19.74533653 -15.33203125 19.62109375 C-16.99298828 19.56501953 -16.99298828 19.56501953 -18.6875 19.5078125 C-21.01821482 19.43702589 -23.34894427 19.36671969 -25.6796875 19.296875 C-27.33291016 19.24080078 -27.33291016 19.24080078 -29.01953125 19.18359375 C-30.53498535 19.1381543 -30.53498535 19.1381543 -32.08105469 19.09179688 C-34.41015625 18.90234375 -34.41015625 18.90234375 -35.41015625 17.90234375 C-35.82095428 12.66466881 -35.26572245 9.33339474 -32.41015625 4.90234375 C-24.09062495 -2.97931749 -10.58714824 -3.40777624 0 0 Z " fill="#4AB379" transform="translate(190.41015625,187.09765625)"/>
<path d="M0 0 C1.53333984 0.01353516 1.53333984 0.01353516 3.09765625 0.02734375 C5.60701522 0.0507957 8.11588336 0.08361645 10.625 0.125 C10.8359638 8.00185011 10.62351362 14.15356554 6.625 21.125 C2.76747184 25.08143914 -1.22736548 26.90898062 -6.71484375 27.4609375 C-18.64683179 27.5904922 -18.64683179 27.5904922 -23.375 23.125 C-26.09738682 20.40261318 -25.83499478 18.67880454 -26 14.875 C-25.92021392 8.8577999 -25.92021392 8.8577999 -23.796875 6.00390625 C-16.36361199 0.31547406 -9.0531417 -0.15185915 0 0 Z " fill="#4FB67E" transform="translate(896.375,330.875)"/>
<path d="M0 0 C1.11503906 0.00322266 2.23007812 0.00644531 3.37890625 0.00976562 C4.53777344 0.01814453 5.69664062 0.02652344 6.890625 0.03515625 C8.06496094 0.03966797 9.23929687 0.04417969 10.44921875 0.04882812 C13.34640572 0.06060531 16.24348954 0.07705299 19.140625 0.09765625 C20.20259914 13.19533735 20.20259914 13.19533735 17.79296875 17.51171875 C16.01505035 19.28572964 14.21313582 20.68477413 12.140625 22.09765625 C11.295 22.90203125 10.449375 23.70640625 9.578125 24.53515625 C3.66881318 27.22120708 -3.79730896 27.4863333 -9.99609375 25.3671875 C-13.31428243 23.31943882 -15.45829871 20.67818453 -16.859375 17.09765625 C-17.49058432 13.60847141 -17.64687194 10.56929767 -16.859375 7.09765625 C-12.40689059 1.03935779 -7.1804901 -0.03663515 0 0 Z " fill="#44B176" transform="translate(389.859375,331.90234375)"/>
<path d="M0 0 C0.73605469 0.01353516 1.47210938 0.02707031 2.23046875 0.04101562 C4.02896743 0.07605131 5.82708422 0.12984712 7.625 0.1875 C7.71966971 4.73164599 7.70522265 9.07299145 6.9375 13.5625 C6.25139809 17.07403692 6.25139809 17.07403692 7.9375 19.125 C11.12308419 21.13073819 13.50207775 21.44493656 17.25 21.75 C18.25289062 21.83378906 19.25578125 21.91757813 20.2890625 22.00390625 C21.05992187 22.06449219 21.83078125 22.12507813 22.625 22.1875 C22.955 20.2075 23.285 18.2275 23.625 16.1875 C19.665 16.1875 15.705 16.1875 11.625 16.1875 C10.965 14.2075 10.305 12.2275 9.625 10.1875 C13.29262608 7.84021931 16.34198615 7.7444296 20.625 8.1875 C23.875 10 23.875 10 26.625 12.1875 C27.264375 12.6 27.90375 13.0125 28.5625 13.4375 C30.10535394 15.9786712 29.8724968 18.25400827 29.40234375 21.1171875 C27.98409522 24.89443232 25.01933626 27.15652033 21.625 29.1875 C15.5658284 31.19498312 8.89148618 31.13196967 3.125 28.375 C0.2482241 26.83639649 -0.46731428 26.04902858 -2.375 23.1875 C-2.82441255 20.80450383 -3.19106943 18.40524516 -3.5 16 C-3.66757813 14.72769531 -3.83515625 13.45539063 -4.0078125 12.14453125 C-4.12898438 11.16871094 -4.25015625 10.19289062 -4.375 9.1875 C-5.695 9.5175 -7.015 9.8475 -8.375 10.1875 C-7.715 15.1375 -7.055 20.0875 -6.375 25.1875 C-10.39937612 23.17531194 -11.78551667 21.81713 -14.5 18.375 C-15.52480469 17.09689453 -15.52480469 17.09689453 -16.5703125 15.79296875 C-18.29359644 13.30502419 -19.38329653 11.03481357 -20.375 8.1875 C-13.82421346 2.416569 -8.81550143 -0.31085403 0 0 Z " fill="#4EB57C" transform="translate(174.375,209.8125)"/>
<path d="M0 0 C1.98 0 3.96 0 6 0 C5.93433838 0.68932617 5.86867676 1.37865234 5.80102539 2.08886719 C5.04760143 10.47131413 4.6953171 18.83924551 4.4375 27.25 C4.39415828 28.59245692 4.35053997 29.93490495 4.30664062 31.27734375 C4.20172235 34.5181527 4.09955985 37.75902277 4 41 C4.66 41 5.32 41 6 41 C6.2475 40.443125 6.495 39.88625 6.75 39.3125 C8.21606015 36.60028873 10.02989471 34.36412635 12 32 C13.98 32.33 15.96 32.66 18 33 C17.44584153 37.17865441 16.08699868 39.72806512 13.625 43.125 C13.01914063 43.97320312 12.41328125 44.82140625 11.7890625 45.6953125 C8.71691569 49.65288154 8.71691569 49.65288154 7 51 C5.68 51 4.36 51 3 51 C3 56.61 3 62.22 3 68 C1.35 68 -0.3 68 -2 68 C-3.97347473 62.22197632 -4.30691004 57.04565248 -4.30078125 50.96484375 C-4.30506638 50.00912979 -4.3093515 49.05341583 -4.31376648 48.06874084 C-4.31949013 46.05079944 -4.32002458 44.03283741 -4.31567383 42.01489258 C-4.3125347 38.97114543 -4.33592553 35.9283914 -4.36132812 32.88476562 C-4.43776172 8.87552344 -4.43776172 8.87552344 0 0 Z " fill="#EAF6EF" transform="translate(82,316)"/>
<path d="M0 0 C1.64263381 1.08997197 3.25014476 2.23528088 4.8125 3.4375 C5.98425781 4.28441406 5.98425781 4.28441406 7.1796875 5.1484375 C11.73968696 8.73477159 13.97988299 11.50510381 14.8125 17.4375 C14.93571025 20.12917012 14.90716726 22.73948295 14.8125 25.4375 C12.8325 25.4375 10.8525 25.4375 8.8125 25.4375 C8.34199219 24.46167969 7.87148437 23.48585937 7.38671875 22.48046875 C6.75813461 21.19515492 6.12921048 19.91000733 5.5 18.625 C5.19126953 17.98240234 4.88253906 17.33980469 4.56445312 16.67773438 C2.12501104 11.72181519 0.86735701 9.20393366 -4.33984375 7.26171875 C-8.5897479 6.35133319 -12.42596248 6.17697181 -16.75 6.25 C-17.47896484 6.25064453 -18.20792969 6.25128906 -18.95898438 6.25195312 C-23.13578863 6.28578862 -27.07451397 6.62529897 -31.1875 7.4375 C-31.8475 10.0775 -32.5075 12.7175 -33.1875 15.4375 C-34.8375 15.4375 -36.4875 15.4375 -38.1875 15.4375 C-38.06890744 10.58598605 -37.6918127 7.23846723 -35.0625 3.0625 C-26.25643326 -4.97782181 -10.35230946 -5.43024367 0 0 Z " fill="#E7F4EE" transform="translate(193.1875,188.5625)"/>
<path d="M0 0 C26.15466121 -0.61865101 26.15466121 -0.61865101 36 3 C36.81984375 3.28617187 37.6396875 3.57234375 38.484375 3.8671875 C40.33783614 4.53826826 42.17221192 5.26185481 44 6 C44 7.32 44 8.64 44 10 C29.27458615 10.34738853 14.51854927 9.63757605 0 7 C0 4.69 0 2.38 0 0 Z " fill="#E2F3EA" transform="translate(158,353)"/>
<path d="M0 0 C1.98 0.66 3.96 1.32 6 2 C6 3.98 6 5.96 6 8 C9.3 8.33 12.6 8.66 16 9 C16 10.65 16 12.3 16 14 C1.7890411 19.48493151 1.7890411 19.48493151 -5 19 C-6 18 -6 18 -6.1875 14.875 C-5.93451769 9.646699 -5.37886464 5.58163885 -1.875 1.5625 C-0.946875 0.7890625 -0.946875 0.7890625 0 0 Z " fill="#E0F1E7" transform="translate(148,292)"/>
<path d="M0 0 C2.3828125 0.2421875 2.3828125 0.2421875 5.125 0.875 C6.03507813 1.07867187 6.94515625 1.28234375 7.8828125 1.4921875 C8.58148438 1.65976563 9.28015625 1.82734375 10 2 C11.80068617 7.17697274 12.10437238 11.29568368 11.6796875 16.765625 C11.78339298 19.19364866 11.78339298 19.19364866 14.0078125 20.796875 C14.66523438 21.19390625 15.32265625 21.5909375 16 22 C14.4176994 22.33820166 12.83410625 22.67035939 11.25 23 C10.36828125 23.185625 9.4865625 23.37125 8.578125 23.5625 C6 24 6 24 2 24 C0.81775332 20.45325997 1.10670366 18.02477005 1.4375 14.3125 C1.53933594 13.13300781 1.64117187 11.95351562 1.74609375 10.73828125 C1.82988281 9.83464844 1.91367188 8.93101562 2 8 C-0.97 7.505 -0.97 7.505 -4 7 C-2.92598892 4.08482708 -2.22189824 2.22189824 0 0 Z " fill="#DAEFE3" transform="translate(216,204)"/>
<path d="M0 0 C1.65 0 3.3 0 5 0 C5.33 1.98 5.66 3.96 6 6 C7.27875 5.896875 8.5575 5.79375 9.875 5.6875 C10.59429687 5.62949219 11.31359375 5.57148438 12.0546875 5.51171875 C14.39519216 5.12606964 14.39519216 5.12606964 16 2 C17.98 2.66 19.96 3.32 22 4 C20.35 7.3 18.7 10.6 17 14 C14.91695462 14.05418326 12.83350232 14.09287551 10.75 14.125 C9.00976562 14.15980469 9.00976562 14.15980469 7.234375 14.1953125 C4.15318867 14.00925052 2.5214091 13.71695953 0 12 C-1.12256131 9.75487738 -1.13413762 8.48543351 -1.125 6 C-1.12886719 4.948125 -1.12886719 4.948125 -1.1328125 3.875 C-1 2 -1 2 0 0 Z " fill="#E7F5ED" transform="translate(158,310)"/>
<path d="M0 0 C1.65 0 3.3 0 5 0 C4.85973717 2.31284456 4.71264442 4.62527591 4.5625 6.9375 C4.48128906 8.22527344 4.40007812 9.51304687 4.31640625 10.83984375 C4 14 4 14 3 15 C-2.67046532 15.38443833 -6.03893093 15.04429239 -11 12 C-11.78375 11.566875 -12.5675 11.13375 -13.375 10.6875 C-15 9 -15 9 -15 3 C-10.38 3.99 -5.76 4.98 -1 6 C-0.67 4.02 -0.34 2.04 0 0 Z " fill="#E6F4ED" transform="translate(191,299)"/>
<path d="M0 0 C3.25 1.8125 3.25 1.8125 6 4 C6.639375 4.4125 7.27875 4.825 7.9375 5.25 C9.81375076 8.34029536 8.62100132 11.55626542 8 15 C6.35 15.33 4.7 15.66 3 16 C2.20046862 12.71303767 1.90341064 11.28976808 3 8 C-0.96 8 -4.92 8 -9 8 C-9.66 6.02 -10.32 4.04 -11 2 C-7.33237392 -0.34728069 -4.28301385 -0.4430704 0 0 Z " fill="#56B882" transform="translate(195,218)"/>
<path d="M0 0 C0 3.63 0 7.26 0 11 C-7.92 12.485 -7.92 12.485 -16 14 C-12.07934132 4.1257485 -12.07934132 4.1257485 -7 1 C-4 0 -4 0 0 0 Z " fill="#53B781" transform="translate(230,230)"/>
<path d="M0 0 C3.95723818 0.2283022 6.32996194 0.45022518 9.4375 3 C11.55924321 7.07374696 11.35307679 10.49827091 11 15 C8.45721976 14.65638105 6.50514327 14.34971457 4.375 12.875 C1.38980449 8.80427885 0 5.02328928 0 0 Z " fill="#DEF1E7" transform="translate(65,324)"/>
<path d="M0 0 C1.72945653 0.14235457 3.45855654 0.28904382 5.1875 0.4375 C6.63189453 0.55931641 6.63189453 0.55931641 8.10546875 0.68359375 C10.78649602 0.97666151 13.3662986 1.42703754 16 2 C15.08877273 3.10865985 14.17073341 4.21172219 13.25 5.3125 C12.73953125 5.92738281 12.2290625 6.54226562 11.703125 7.17578125 C9.94461466 9.05932329 8.10080364 10.51573656 6 12 C4.98829382 10.75945552 3.99102203 9.5071298 3 8.25 C2.443125 7.55390625 1.88625 6.8578125 1.3125 6.140625 C0 4 0 4 0 0 Z " fill="#51B67F" transform="translate(176,244)"/>
</svg>
